<svg xmlns="http://www.w3.org/2000/svg" viewBox="0 0 128 128" width="128" height="128">
  <path d="M12 90 C30 82 52 82 66 87" fill="none" stroke="#1E6BFF" stroke-width="5" stroke-linecap="round"/>
  <path d="M8 99 C30 89 56 89 72 94" fill="none" stroke="#1E6BFF" stroke-width="6" stroke-linecap="round"/>
  <path d="M16 107 C34 100 52 100 64 103" fill="none" stroke="#1E6BFF" stroke-width="5" stroke-linecap="round"/>
  <g transform="translate(14,82) rotate(-14)">
    <rect width="48" height="15" rx="5" fill="#1E6BFF"/>
    <rect x="31" y="3" width="3" height="9" rx="1.5" fill="#FFFFFF"/>
    <rect x="37" y="3" width="3" height="9" rx="1.5" fill="#FFFFFF"/>
    <rect x="43" y="3" width="3" height="9" rx="1.5" fill="#FFFFFF"/>
  </g>
  <ellipse cx="88" cy="104" rx="13" ry="7" fill="#1E6BFF"/>
  <path d="M96 46 C96 30 64 26 52 40 C40 54 78 60 78 76 C78 92 44 94 38 78"
        fill="none" stroke="#FFFFFF" stroke-width="20" stroke-linecap="round" stroke-linejoin="round"/>
</svg>
